<mxfile host="app.diagrams.net" modified="2022-11-14T06:44:56.799Z" agent="5.0 (Windows NT 6.1; Win64; x64) AppleWebKit/537.36 (KHTML, like Gecko) Chrome/107.0.0.0 Safari/537.36" etag="6XZ40KYTqPEUpuhCrNx4" version="20.5.3" type="github">
  <diagram id="kgpKYQtTHZ0yAKxKKP6v" name="Page-1">
    <mxGraphModel dx="2512" dy="762" grid="1" gridSize="10" guides="1" tooltips="1" connect="1" arrows="1" fold="1" page="1" pageScale="1" pageWidth="850" pageHeight="1100" math="0" shadow="0">
      <root>
        <mxCell id="0" />
        <mxCell id="1" parent="0" />
        <mxCell id="3nuBFxr9cyL0pnOWT2aG-1" value="h5页面" style="shape=umlLifeline;perimeter=lifelinePerimeter;container=1;collapsible=0;recursiveResize=0;rounded=0;shadow=0;strokeWidth=1;" parent="1" vertex="1">
          <mxGeometry x="-230" y="80" width="100" height="1370" as="geometry" />
        </mxCell>
        <mxCell id="3nuBFxr9cyL0pnOWT2aG-2" value="" style="points=[];perimeter=orthogonalPerimeter;rounded=0;shadow=0;strokeWidth=1;" parent="3nuBFxr9cyL0pnOWT2aG-1" vertex="1">
          <mxGeometry x="45" y="70" width="10" height="150" as="geometry" />
        </mxCell>
        <mxCell id="3nuBFxr9cyL0pnOWT2aG-3" value="查询赛程" style="verticalAlign=bottom;startArrow=oval;endArrow=block;startSize=8;shadow=0;strokeWidth=1;" parent="3nuBFxr9cyL0pnOWT2aG-1" target="3nuBFxr9cyL0pnOWT2aG-2" edge="1">
          <mxGeometry relative="1" as="geometry">
            <mxPoint x="-60" y="70" as="sourcePoint" />
          </mxGeometry>
        </mxCell>
        <mxCell id="iJaBp2wlKT-MQ3Jx9xqJ-9" value="" style="html=1;points=[];perimeter=orthogonalPerimeter;" vertex="1" parent="3nuBFxr9cyL0pnOWT2aG-1">
          <mxGeometry x="45" y="280" width="10" height="260" as="geometry" />
        </mxCell>
        <mxCell id="iJaBp2wlKT-MQ3Jx9xqJ-10" value="查询用户票数和积分" style="html=1;verticalAlign=bottom;startArrow=oval;endArrow=block;startSize=8;rounded=0;" edge="1" target="iJaBp2wlKT-MQ3Jx9xqJ-9" parent="3nuBFxr9cyL0pnOWT2aG-1">
          <mxGeometry relative="1" as="geometry">
            <mxPoint x="-60" y="280" as="sourcePoint" />
          </mxGeometry>
        </mxCell>
        <mxCell id="3nuBFxr9cyL0pnOWT2aG-5" value="server端" style="shape=umlLifeline;perimeter=lifelinePerimeter;container=1;collapsible=0;recursiveResize=0;rounded=0;shadow=0;strokeWidth=1;" parent="1" vertex="1">
          <mxGeometry x="-50" y="80" width="100" height="1370" as="geometry" />
        </mxCell>
        <mxCell id="3nuBFxr9cyL0pnOWT2aG-6" value="" style="points=[];perimeter=orthogonalPerimeter;rounded=0;shadow=0;strokeWidth=1;" parent="3nuBFxr9cyL0pnOWT2aG-5" vertex="1">
          <mxGeometry x="45" y="80" width="10" height="130" as="geometry" />
        </mxCell>
        <mxCell id="iJaBp2wlKT-MQ3Jx9xqJ-11" value="" style="html=1;points=[];perimeter=orthogonalPerimeter;" vertex="1" parent="3nuBFxr9cyL0pnOWT2aG-5">
          <mxGeometry x="45" y="280" width="10" height="250" as="geometry" />
        </mxCell>
        <mxCell id="3nuBFxr9cyL0pnOWT2aG-8" value="查询赛程列表接口" style="verticalAlign=bottom;endArrow=block;entryX=0;entryY=0;shadow=0;strokeWidth=1;" parent="1" source="3nuBFxr9cyL0pnOWT2aG-2" target="3nuBFxr9cyL0pnOWT2aG-6" edge="1">
          <mxGeometry relative="1" as="geometry">
            <mxPoint x="-75" y="160" as="sourcePoint" />
          </mxGeometry>
        </mxCell>
        <mxCell id="iJaBp2wlKT-MQ3Jx9xqJ-1" value="db" style="shape=umlLifeline;perimeter=lifelinePerimeter;whiteSpace=wrap;html=1;container=1;collapsible=0;recursiveResize=0;outlineConnect=0;" vertex="1" parent="1">
          <mxGeometry x="200" y="80" width="100" height="1360" as="geometry" />
        </mxCell>
        <mxCell id="iJaBp2wlKT-MQ3Jx9xqJ-2" value="" style="html=1;points=[];perimeter=orthogonalPerimeter;" vertex="1" parent="iJaBp2wlKT-MQ3Jx9xqJ-1">
          <mxGeometry x="45" y="100" width="10" height="80" as="geometry" />
        </mxCell>
        <mxCell id="iJaBp2wlKT-MQ3Jx9xqJ-14" value="" style="html=1;points=[];perimeter=orthogonalPerimeter;" vertex="1" parent="iJaBp2wlKT-MQ3Jx9xqJ-1">
          <mxGeometry x="45" y="290" width="10" height="80" as="geometry" />
        </mxCell>
        <mxCell id="iJaBp2wlKT-MQ3Jx9xqJ-23" value="" style="html=1;points=[];perimeter=orthogonalPerimeter;" vertex="1" parent="iJaBp2wlKT-MQ3Jx9xqJ-1">
          <mxGeometry x="45" y="430" width="10" height="80" as="geometry" />
        </mxCell>
        <mxCell id="iJaBp2wlKT-MQ3Jx9xqJ-3" value="查询world_cup_schedule表" style="html=1;verticalAlign=bottom;endArrow=block;entryX=0;entryY=0;rounded=0;" edge="1" target="iJaBp2wlKT-MQ3Jx9xqJ-2" parent="1" source="3nuBFxr9cyL0pnOWT2aG-6">
          <mxGeometry relative="1" as="geometry">
            <mxPoint x="175" y="180" as="sourcePoint" />
          </mxGeometry>
        </mxCell>
        <mxCell id="iJaBp2wlKT-MQ3Jx9xqJ-4" value="return" style="html=1;verticalAlign=bottom;endArrow=open;dashed=1;endSize=8;exitX=0;exitY=0.95;rounded=0;" edge="1" source="iJaBp2wlKT-MQ3Jx9xqJ-2" parent="1" target="3nuBFxr9cyL0pnOWT2aG-6">
          <mxGeometry relative="1" as="geometry">
            <mxPoint x="175" y="256" as="targetPoint" />
          </mxGeometry>
        </mxCell>
        <mxCell id="iJaBp2wlKT-MQ3Jx9xqJ-5" value="return" style="html=1;verticalAlign=bottom;endArrow=open;dashed=1;endSize=8;rounded=0;" edge="1" parent="1">
          <mxGeometry relative="1" as="geometry">
            <mxPoint x="-5" y="266" as="sourcePoint" />
            <mxPoint x="-175" y="266" as="targetPoint" />
          </mxGeometry>
        </mxCell>
        <mxCell id="iJaBp2wlKT-MQ3Jx9xqJ-12" value="查询用户活动信息接口" style="html=1;verticalAlign=bottom;endArrow=block;entryX=0;entryY=0;rounded=0;" edge="1" target="iJaBp2wlKT-MQ3Jx9xqJ-11" parent="1" source="iJaBp2wlKT-MQ3Jx9xqJ-9">
          <mxGeometry relative="1" as="geometry">
            <mxPoint x="-75" y="350" as="sourcePoint" />
          </mxGeometry>
        </mxCell>
        <mxCell id="iJaBp2wlKT-MQ3Jx9xqJ-15" value="查询用户实时票数&lt;br&gt;vote_getting_total" style="html=1;verticalAlign=bottom;endArrow=block;entryX=0;entryY=0;rounded=0;" edge="1" target="iJaBp2wlKT-MQ3Jx9xqJ-14" parent="1" source="iJaBp2wlKT-MQ3Jx9xqJ-11">
          <mxGeometry relative="1" as="geometry">
            <mxPoint x="175" y="370" as="sourcePoint" />
          </mxGeometry>
        </mxCell>
        <mxCell id="iJaBp2wlKT-MQ3Jx9xqJ-16" value="返回实时票数" style="html=1;verticalAlign=bottom;endArrow=open;dashed=1;endSize=8;exitX=0;exitY=0.95;rounded=0;" edge="1" source="iJaBp2wlKT-MQ3Jx9xqJ-14" parent="1" target="iJaBp2wlKT-MQ3Jx9xqJ-11">
          <mxGeometry relative="1" as="geometry">
            <mxPoint x="175" y="446" as="targetPoint" />
          </mxGeometry>
        </mxCell>
        <mxCell id="iJaBp2wlKT-MQ3Jx9xqJ-24" value="查询用户累计积分&lt;br&gt;points_total" style="html=1;verticalAlign=bottom;endArrow=block;entryX=0;entryY=0;rounded=0;" edge="1" target="iJaBp2wlKT-MQ3Jx9xqJ-23" parent="1" source="iJaBp2wlKT-MQ3Jx9xqJ-11">
          <mxGeometry relative="1" as="geometry">
            <mxPoint x="175" y="510" as="sourcePoint" />
          </mxGeometry>
        </mxCell>
        <mxCell id="iJaBp2wlKT-MQ3Jx9xqJ-25" value="返回用户积分" style="html=1;verticalAlign=bottom;endArrow=open;dashed=1;endSize=8;exitX=0;exitY=0.95;rounded=0;" edge="1" source="iJaBp2wlKT-MQ3Jx9xqJ-23" parent="1" target="iJaBp2wlKT-MQ3Jx9xqJ-11">
          <mxGeometry relative="1" as="geometry">
            <mxPoint x="175" y="586" as="targetPoint" />
          </mxGeometry>
        </mxCell>
      </root>
    </mxGraphModel>
  </diagram>
</mxfile>
